<svg width="121" height="20" viewBox="0 0 121 20" fill="none" xmlns="http://www.w3.org/2000/svg">
<path d="M0 10.5313C0 7.44808 2.12268 5.18355 5.30546 5.18355C6.19372 5.18159 7.06675 5.41423 7.83626 5.85793V0.592285H10.6507V15.7124H7.9134L7.85119 15.1624L7.27883 15.4287C6.62264 15.7436 5.90627 15.9133 5.17855 15.9264C2.14259 15.9164 0 13.6519 0 10.5313ZM5.38758 13.3458C5.84696 13.349 6.30144 13.2513 6.71892 13.0596L7.84123 12.5619V8.58034C7.17187 8.0654 6.35846 7.77223 5.51449 7.74172C3.84223 7.74172 2.84186 8.94615 2.84186 10.5189C2.83688 12.1414 3.83725 13.3458 5.38758 13.3458Z" fill="white"/>
<path d="M14.2317 0C15.2719 0 16.0458 0.714197 16.0458 1.74194C16.0458 2.80453 15.2719 3.49882 14.2317 3.49882C13.7697 3.49882 13.3266 3.3153 13 2.98862C12.6733 2.66194 12.4897 2.21887 12.4897 1.75687C12.4897 1.29488 12.6733 0.851814 13 0.525136C13.3266 0.198458 13.7697 0.0149303 14.2317 0.0149303V0ZM12.8431 5.38758H15.6377V15.7123H12.8431V5.38758Z" fill="white"/>
<path d="M20.3833 19.6317L16.6729 18.2855L17.5912 15.8766L21.2045 17.1632C21.6865 17.3435 22.1978 17.433 22.7125 17.4269C24.2454 17.4269 24.8775 16.5709 24.8775 14.7145V14.4283L24.2852 14.6772C23.6298 14.9703 22.9226 15.1302 22.2048 15.1475C19.2609 15.1425 17.1706 13.0347 17.1706 10.163C17.1706 7.29131 19.2535 5.18605 22.374 5.18605C23.3701 5.17504 24.3482 5.45153 25.191 5.98237L25.517 5.3901H27.6994V15.043C27.6994 18.2456 25.7086 20 22.6602 20C21.8868 19.9951 21.1188 19.8709 20.3833 19.6317ZM22.4437 12.6515C22.8777 12.6555 23.3078 12.5709 23.7079 12.4027L24.8725 11.9547V8.40864C24.2057 7.94427 23.4177 7.68479 22.6055 7.6621C20.8934 7.6621 19.9328 8.74459 19.9328 10.173C19.9328 11.6014 20.9033 12.6515 22.4437 12.6515Z" fill="white"/>
<path d="M31.2654 0C32.3081 0 33.082 0.714197 33.082 1.74194C33.082 2.80453 32.3081 3.49882 31.2654 3.49882C30.8034 3.49882 30.3604 3.3153 30.0337 2.98862C29.707 2.66194 29.5235 2.21887 29.5235 1.75687C29.5235 1.29488 29.707 0.851814 30.0337 0.525136C30.3604 0.198458 30.8034 0.0149303 31.2654 0.0149303V0ZM29.8794 5.38758H32.6739V15.7123H29.8794V5.38758Z" fill="white"/>
<path d="M35.5556 12.878V7.9184H33.5772V5.3876H35.5556V2.55072H38.3725V5.3876H41.3911V7.9184H38.3725V12.6739C38.3725 12.9999 38.4746 13.2039 38.8205 13.2039C39.2057 13.1712 39.5839 13.0814 39.9428 12.9377L41.289 12.5097L42.0655 14.8961L40.861 15.3266C39.9428 15.6526 38.9847 15.9164 38.2904 15.9164C36.4539 15.9164 35.5556 15.1425 35.5556 12.878Z" fill="white"/>
<path d="M42.5059 12.6117C42.5059 10.489 44.1582 9.30699 46.3829 9.30699C47.3273 9.30663 48.2554 9.55282 49.0755 10.0212V8.51067C49.0755 7.87611 48.8913 7.65214 48.1174 7.65214C47.239 7.65214 45.0566 8.00053 43.5062 8.28671L43.118 5.85794C44.3822 5.63398 47.1568 5.18356 48.2592 5.18356C50.5462 5.18356 51.8302 6.16403 51.8302 8.48828V15.7049H49.0755V15.033L48.4235 15.4212C47.8009 15.7688 47.0956 15.9409 46.3829 15.9189C44.1582 15.9164 42.5059 14.7145 42.5059 12.6117ZM46.9851 13.836C47.3873 13.8332 47.784 13.7423 48.1473 13.5698L49.0655 13.1218V12.1264C48.6176 11.6561 47.8412 11.3923 46.9851 11.3923C45.8429 11.3923 45.2432 11.8403 45.2432 12.6366C45.2606 13.3657 45.8529 13.836 46.9951 13.836H46.9851Z" fill="white"/>
<path d="M53.9504 0.592285H56.7375V15.7124H53.9504V0.592285Z" fill="white"/>
<path d="M62.4028 0.593536H65.1998V15.7136H62.4028V0.593536Z" fill="white"/>
<path d="M66.4018 10.5474C66.4018 7.46667 68.6887 5.17975 71.8914 5.17975C75.0941 5.17975 77.3735 7.47165 77.3735 10.5474C77.3735 13.6232 75.0742 15.9176 71.8989 15.9176C68.7236 15.9176 66.4018 13.6531 66.4018 10.5474ZM71.8989 13.347C73.5512 13.347 74.5317 12.1848 74.5317 10.5524C74.5317 8.91995 73.5438 7.75534 71.8989 7.75534C70.254 7.75534 69.2387 8.91995 69.2387 10.5474C69.2387 12.1749 70.239 13.347 71.8989 13.347Z" fill="white"/>
<path d="M81.2158 19.633L77.503 18.2867L78.4212 15.8779L82.032 17.1644C82.5149 17.3448 83.0271 17.4343 83.5426 17.4282C85.073 17.4282 85.7051 16.5722 85.7051 14.7157V14.4296L85.1128 14.6784C84.4576 14.9721 83.7503 15.132 83.0324 15.1487C80.0935 15.1487 77.9932 13.046 77.9932 10.1718C77.9932 7.29755 80.0736 5.19478 83.1967 5.19478C84.1919 5.18369 85.1692 5.4602 86.0111 5.9911L86.3322 5.38888H88.517V15.0417C88.517 18.2444 86.5263 19.9988 83.4754 19.9988C82.7079 19.9929 81.9459 19.8696 81.2158 19.633ZM83.2763 12.6528C83.711 12.6567 84.142 12.572 84.5429 12.4039L85.7051 11.956V8.40991C85.0389 7.94599 84.2519 7.68654 83.4405 7.66336C81.726 7.66336 80.7679 8.74586 80.7679 10.1743C80.7679 11.6026 81.726 12.6528 83.2763 12.6528Z" fill="white"/>
<path d="M92.1005 0.0012207C93.1407 0.0012207 93.9171 0.715417 93.9171 1.74316C93.9171 2.80575 93.1407 3.50004 92.1005 3.50004C91.8717 3.50004 91.6452 3.45498 91.4339 3.36744C91.2225 3.2799 91.0305 3.15159 90.8687 2.98984C90.707 2.82808 90.5787 2.63605 90.4911 2.42471C90.4036 2.21337 90.3585 1.98685 90.3585 1.75809C90.3585 1.52934 90.4036 1.30283 90.4911 1.09148C90.5787 0.880142 90.707 0.688111 90.8687 0.526357C91.0305 0.364602 91.2225 0.236288 91.4339 0.148747C91.6452 0.0612062 91.8717 0.016151 92.1005 0.016151V0.0012207ZM90.7119 5.3888H93.5089V15.7136H90.7119V5.3888Z" fill="white"/>
<path d="M95.6838 5.3888H98.2968V6.28715C99.2681 5.60511 100.418 5.22192 101.604 5.18475C104.234 5.18475 105.663 6.93913 105.663 9.63417V15.7136H102.848V10.0622C102.848 8.48946 102.236 7.82255 101.012 7.82255C100.173 7.82255 99.215 8.27048 98.4809 8.80301V15.7185H95.6838V5.3888Z" fill="white"/>
<path d="M115.934 14.6062C118.478 14.6062 120.54 12.5439 120.54 9.99999C120.54 7.45606 118.478 5.3938 115.934 5.3938C113.39 5.3938 111.328 7.45606 111.328 9.99999C111.328 12.5439 113.39 14.6062 115.934 14.6062Z" fill="white"/>
</svg>
