<svg xmlns="http://www.w3.org/2000/svg" enable-background="new 0 0 56.48 56.48" viewBox="0 0 56.48 56.48"><path d="M12.182 33.055c-.315 0-.46.022-.599.031v4.174c-.001.592.423.661.798.661 1.658 0 2.202-1.25 2.202-2.395C14.583 34.093 13.662 33.055 12.182 33.055zM41.887 40.291h-.014-.008-.013l-.4 1.217h.83L41.887 40.291zM41.863 40.31l.001-.002h.008l.386 1.183h-.784L41.863 40.31z"/><path d="M43.463 42.63c-.138 0-.225-.05-.272-.169-.056-.125-.105-.28-.155-.426l-.769-2.184c-.012-.033-.025-.071-.039-.104-.007-.013-.015-.013-.028-.013-.014 0-.02.005-.034.009-.08.05-.246.134-.38.179-.024.156-.1.365-.153.519l-.668 1.916c-.063.174-.201.272-.365.272h-.025v.125c.149-.01.3-.017.451-.017.167 0 .338.007.505.017V42.63h-.047c-.136 0-.312-.02-.312-.146 0-.074.049-.183.09-.325l.136-.435h.946l.162.483c.047.134.084.246.084.3 0 .105-.162.123-.259.123h-.045v.125c.212-.01.421-.017.625-.017.201 0 .389.007.577.017V42.63H43.463zM43.471 42.736c-.183-.008-.366-.016-.559-.016-.197 0-.402.008-.607.016h-.002v-.087h.028c.096-.003.27-.013.277-.142 0-.061-.037-.172-.083-.306l-.168-.497h-.975l-.137.447c-.04.142-.092.248-.092.331.004.149.193.164.33.166h.029v.087c-.162-.008-.326-.016-.487-.016-.146 0-.289.008-.433.016v-.087h.006c.17 0 .317-.104.379-.285l.67-1.916c.053-.155.13-.365.154-.521.125-.033.293-.115.373-.168.009-.002.014-.006.023-.006h.008c.003 0 .002 0 .006.006.012.029.023.068.035.1l.77 2.184c.05.147.099.301.154.428.051.123.15.18.293.18h.006.002V42.736zM11.333 39.966h.058v-.125c-.197 0-.447.016-.655.016-.205 0-.456-.016-.619-.016v.125h.059c.151 0 .309.019.309.237v2.187c0 .218-.159.238-.309.238h-.059v.125c.163 0 .409-.016.614-.016.209 0 .459.016.66.016v-.125h-.058c-.151 0-.31-.019-.31-.238v-2.187C11.023 39.986 11.183 39.966 11.333 39.966zM11.332 42.65h.04v.089c-.198-.001-.439-.018-.642-.018-.198 0-.433.017-.595.018V42.65h.04c.149 0 .327-.027.327-.257v-2.188c0-.231-.178-.257-.327-.257h-.04v-.089c.162.002.402.017.6.017.203 0 .445-.017.637-.017v.089h-.04c-.15 0-.328.027-.328.257v2.188C11.004 42.624 11.183 42.65 11.332 42.65z"/><path d="M55.026,9.939H1.454C0.65,9.939,0,10.59,0,11.393v33.694c0,0.803,0.65,1.455,1.454,1.455h53.572
			c0.804,0,1.454-0.651,1.454-1.454V11.393C56.48,10.59,55.83,9.939,55.026,9.939z M42.195,32.721c0.31-0.1,0.63-0.237,0.791-0.33
			c0.084-0.047,0.146-0.084,0.169-0.084c0.045,0,0.062,0.045,0.062,0.107v2.801c0.306-0.261,0.72-0.552,1.142-0.552
			c0.89,0,1.427,0.775,1.427,1.611c0,1.004-0.736,2.01-1.835,2.01c-0.565,0-0.866-0.185-1.065-0.271l-0.229,0.178l-0.161-0.083
			c0.068-0.453,0.107-0.899,0.107-1.367v-3.299c0-0.498-0.116-0.515-0.408-0.599V32.721z M40.147,37.869
			c0.261,0,0.607-0.2,0.928-0.467v-2.064c0-0.154-0.37-0.238-0.644-0.314v-0.139c0.688-0.046,1.119-0.107,1.195-0.107
			c0.062,0,0.062,0.054,0.062,0.138v2.831c0,0.138,0.084,0.146,0.214,0.146c0.093,0,0.207-0.008,0.308-0.008v0.162
			c-0.33,0.029-0.959,0.191-1.105,0.237l-0.038-0.022V37.64c-0.46,0.375-0.813,0.645-1.358,0.645c-0.414,0-0.844-0.269-0.844-0.913
			v-1.965c0-0.202-0.029-0.392-0.459-0.431V34.83c0.275-0.007,0.888-0.053,0.99-0.053c0.084,0,0.084,0.053,0.084,0.222v1.978
			C39.48,37.208,39.48,37.869,40.147,37.869z M25.967,12.87h4.212c4.893-0.002,9.362,3.69,9.362,9.032
			c0,4.884-4.467,8.9-9.362,8.876h-4.212c-4.953,0.024-9.03-3.99-9.03-8.876C16.937,16.56,21.014,12.867,25.967,12.87z
			 M36.868,32.843v-0.123c0.309-0.1,0.629-0.237,0.791-0.33c0.083-0.047,0.147-0.084,0.169-0.084c0.048,0,0.062,0.045,0.062,0.107
			v5.301c0,0.254,0.17,0.254,0.385,0.254h0.129v0.198c-0.26,0-0.528-0.014-0.805-0.014c-0.276,0-0.553,0.007-0.836,0.014v-0.198
			h0.146c0.215,0,0.369,0,0.369-0.254v-4.271C37.278,32.943,37.163,32.927,36.868,32.843z M27.273,35.643
			c0-0.429,0.346-0.982,1.189-0.982c0.247,0,0.576,0.07,0.875,0.223l0.053,0.782h-0.176c-0.076-0.484-0.344-0.759-0.836-0.759
			c-0.306,0-0.598,0.177-0.598,0.506c0,0.899,1.78,0.622,1.78,1.826c0,0.506-0.407,1.044-1.32,1.044
			c-0.308,0-0.667-0.109-0.936-0.261L27.22,37.14l0.138-0.039c0.1,0.507,0.406,0.937,0.967,0.937c0.451,0,0.62-0.276,0.62-0.545
			C28.945,36.586,27.273,36.877,27.273,35.643z M25.961,37.968h0.429v0.198c-0.422-0.007-0.742-0.014-1.073-0.014
			c-0.315,0-0.637,0.007-0.913,0.014v-0.198h0.207c0.214,0,0.367,0,0.367-0.254V35.56c0-0.239-0.282-0.284-0.398-0.346v-0.115
			c0.561-0.239,0.868-0.438,0.937-0.438c0.045,0,0.068,0.024,0.068,0.1v0.69h0.016c0.191-0.299,0.514-0.79,0.981-0.79
			c0.191,0,0.438,0.129,0.438,0.406c0,0.208-0.146,0.392-0.361,0.392c-0.238,0-0.238-0.184-0.506-0.184
			c-0.13,0-0.56,0.176-0.56,0.636v1.803C25.593,37.969,25.747,37.969,25.961,37.968z M21.995,36.495
			c0.045,0.729,0.515,1.328,1.127,1.328c0.423,0,0.753-0.23,1.036-0.513l0.107,0.106c-0.353,0.468-0.789,0.867-1.418,0.867
			c-1.22,0-1.466-1.183-1.466-1.673c0-1.503,1.013-1.948,1.55-1.948c0.621,0,1.289,0.39,1.296,1.203c0,0.047,0,0.093-0.007,0.14
			l-0.07,0.045h-2.155C21.978,36.12,21.978,36.234,21.995,36.495z M16.516,32.726c0.199,0,0.376,0.162,0.376,0.371
			c0,0.205-0.168,0.383-0.376,0.383c-0.199,0-0.375-0.184-0.375-0.383C16.141,32.903,16.324,32.726,16.516,32.726z M15.811,35.101
			v-0.123c0.361-0.108,0.79-0.254,0.82-0.276c0.055-0.03,0.1-0.038,0.139-0.038c0.038,0,0.054,0.045,0.054,0.107v2.945
			c0,0.254,0.17,0.254,0.384,0.254h0.13v0.197c-0.262,0-0.53-0.014-0.806-0.014s-0.552,0.007-0.836,0.014l-0.001-0.195h0.146
			c0.214,0,0.369,0,0.369-0.254v-2.08C16.21,35.299,16.094,35.252,15.811,35.101z M10.125,37.966
			c0.46-0.045,0.684-0.061,0.705-0.582v-3.723h0.001c0-0.689-0.361-0.644-0.706-0.65V32.81c0.3,0.016,0.605,0.016,0.905,0.016
			c0.323,0,0.761-0.016,1.328-0.016c1.987,0,3.068,1.329,3.068,2.686c0,0.76-0.444,2.67-3.16,2.67c-0.391,0-0.753-0.014-1.112-0.014
			c-0.345,0-0.683,0.007-1.028,0.014v-0.001h-0.001V37.966z M11.41,39.986h-0.019h-0.058c-0.152,0.003-0.292,0.016-0.292,0.221
			v2.187c0.001,0.205,0.14,0.218,0.292,0.221h0.077v0.02v0.143h-0.019c-0.202,0-0.452-0.018-0.66-0.018
			c-0.203,0-0.449,0.018-0.614,0.018H10.1V42.76v-0.125v-0.02h0.017h0.059c0.152-0.003,0.29-0.016,0.291-0.221v-2.187
			c-0.001-0.205-0.14-0.219-0.291-0.221H10.1v-0.019v-0.144h0.016c0.165,0,0.415,0.017,0.619,0.017c0.208,0,0.458-0.017,0.655-0.017
			h0.019l0.001,0.021V39.986z M14.929,39.984h-0.018h-0.062c-0.173,0.005-0.35,0.021-0.354,0.513v1.9
			c0,0.146,0.004,0.291,0.024,0.417l0.003,0.022h-0.021l-0.173-0.007l-2.118-2.36v1.674c0.005,0.364,0.06,0.467,0.374,0.471h0.09
			v0.02v0.143h-0.019c-0.181,0-0.361-0.018-0.539-0.018c-0.186,0-0.379,0.018-0.568,0.018H11.53V42.76v-0.145h0.019h0.059
			c0.275-0.002,0.355-0.18,0.357-0.512v-1.758c0-0.222-0.183-0.356-0.362-0.357H11.53v-0.018v-0.144h0.019
			c0.16,0,0.323,0.015,0.479,0.015c0.125,0,0.245-0.015,0.387-0.009l1.834,2.065v-1.536c-0.002-0.332-0.224-0.373-0.345-0.375h-0.11
			v-0.019v-0.143h0.018c0.196,0,0.389,0.016,0.584,0.016c0.17,0,0.34-0.016,0.514-0.016h0.018l0.001,0.017V39.984z M17.945,39.729
			c-0.017,0.11-0.034,0.225-0.046,0.337c-0.008,0.111-0.008,0.224-0.008,0.336v0.013l-0.011,0.005l-0.148,0.055l-0.001-0.024
			c-0.011-0.157-0.028-0.384-0.292-0.384h-0.667v2.203c0.004,0.315,0.129,0.337,0.328,0.341h0.101v0.019v0.145h-0.018
			c-0.165,0-0.457-0.017-0.681-0.017c-0.249,0-0.542,0.017-0.706,0.017h-0.018v-0.019v-0.144h0.018h0.08
			c0.229-0.005,0.322-0.009,0.327-0.332v-2.211h-0.667c-0.308,0.006-0.302,0.057-0.371,0.366l-0.002,0.015h-0.015h-0.146
			l0.001-0.022c0.018-0.116,0.039-0.233,0.051-0.354c0.018-0.117,0.025-0.233,0.025-0.354v-0.018h0.017h0.116l0.002,0.014
			c0.029,0.104,0.106,0.105,0.213,0.106h0.021h2.153c0.117-0.001,0.202-0.003,0.208-0.112l0.002-0.02l0.019,0.004l0.118,0.018
			L17.945,39.729z M20.452,42.096c-0.054,0.222-0.104,0.442-0.142,0.662l-0.003,0.016h-0.015c-0.267,0-0.748-0.018-1.123-0.018
			s-0.871,0.018-1.109,0.018h-0.018v-0.018V42.63v-0.02h0.018h0.059c0.152-0.002,0.289-0.016,0.29-0.221v-2.187
			c-0.001-0.204-0.138-0.218-0.29-0.221h-0.077v-0.019V39.82h0.018c0.255,0,0.689,0.016,1.039,0.016
			c0.351,0,0.784-0.016,1.068-0.016h0.019l-0.001,0.02c-0.002,0.062-0.004,0.135-0.004,0.215c0,0.145,0.004,0.302,0.013,0.42v0.017
			l-0.013,0.004l-0.147,0.038l-0.001-0.021c-0.025-0.272-0.06-0.467-0.491-0.472H18.98v1.058h0.478
			c0.241-0.002,0.284-0.127,0.312-0.352l0.002-0.016h0.016h0.145l-0.001,0.019c-0.008,0.162-0.013,0.325-0.013,0.488
			c0,0.159,0.005,0.318,0.013,0.476l0.001,0.016l-0.016,0.004l-0.145,0.029l-0.002-0.021c-0.029-0.253-0.031-0.393-0.308-0.397
			h-0.483v0.955c0,0.254,0.22,0.252,0.492,0.254c0.502-0.004,0.704-0.027,0.83-0.498l0.004-0.016l0.018,0.002l0.134,0.035
			L20.452,42.096z M19.77,38.166v-0.198h0.138c0.215,0,0.367,0,0.367-0.254v-1.986c0-0.437-0.268-0.652-0.706-0.652
			c-0.245,0-0.636,0.201-0.891,0.369v2.271c0,0.254,0.17,0.254,0.385,0.254h0.138v0.197c-0.268,0-0.537-0.014-0.813-0.014
			s-0.552,0.007-0.828,0.014v-0.197h0.137c0.215,0,0.368,0,0.368-0.254v-2.033h0.001c0-0.284-0.085-0.36-0.445-0.506v-0.146
			c0.33-0.107,0.643-0.207,1.013-0.368c0.022,0,0.044,0.014,0.044,0.076v0.499c0.438-0.314,0.815-0.575,1.329-0.575
			c0.652,0,0.882,0.475,0.882,1.073v1.98c0,0.254,0.168,0.254,0.383,0.254h0.139v0.198c-0.269,0-0.537-0.014-0.813-0.014
			S20.045,38.161,19.77,38.166z M23.495,42.63v0.146h-0.018c-0.139,0-0.273-0.017-0.41-0.017c-0.127,0-0.26,0.016-0.406,0.01
			c-0.32-0.422-0.594-0.869-0.864-1.346H21.55v0.875c0.005,0.315,0.131,0.312,0.324,0.316h0.094v0.02v0.143h-0.019
			c-0.238,0-0.481-0.018-0.718-0.018c-0.199,0-0.395,0.018-0.604,0.018h-0.018v-0.018v-0.145h0.018h0.074
			c0.152-0.001,0.277-0.066,0.278-0.207v-2.122c-0.003-0.297-0.148-0.294-0.278-0.298h-0.092v-0.02v-0.144h0.018
			c0.135,0,0.393,0.017,0.647,0.017c0.249,0,0.449-0.017,0.672-0.017c0.526,0.002,1.011,0.148,1.012,0.753
			c0,0.378-0.249,0.613-0.571,0.744l0.701,1.05c0.117,0.174,0.189,0.216,0.393,0.242l0.015,0.002L23.495,42.63z M26.55,40.495v1.9
			c0,0.146,0.003,0.29,0.025,0.419l0.002,0.021h-0.021l-0.172-0.007l-2.119-2.362v1.674c0.004,0.364,0.06,0.466,0.375,0.47h0.088
			v0.019v0.146H24.71c-0.182,0-0.36-0.017-0.539-0.017c-0.185,0-0.379,0.017-0.566,0.017h-0.019v-0.019v-0.144h0.019h0.058
			c0.275,0,0.354-0.179,0.356-0.513v-1.758c0-0.221-0.181-0.356-0.361-0.356h-0.072v-0.019v-0.144h0.019
			c0.159,0,0.321,0.017,0.479,0.017c0.122,0,0.244-0.017,0.383-0.011l1.835,2.065v-1.535c-0.001-0.332-0.224-0.373-0.345-0.375
			h-0.11v-0.018V39.82h0.019c0.197,0,0.389,0.016,0.584,0.016c0.17,0,0.341-0.016,0.513-0.016h0.018v0.02v0.143h-0.018h-0.062
			C26.728,39.989,26.552,40.002,26.55,40.495z M29.879,42.63v0.149l-0.02-0.002c-0.187-0.009-0.376-0.017-0.575-0.017
			c-0.205,0-0.412,0.008-0.625,0.017l-0.019,0.001v-0.02v-0.144h0.02h0.045c0.098,0,0.241-0.023,0.241-0.103
			c0.002-0.047-0.037-0.162-0.083-0.295l-0.159-0.472h-0.92l-0.129,0.422c-0.043,0.141-0.093,0.253-0.093,0.321
			c0.002,0.102,0.157,0.127,0.296,0.127h0.063v0.02v0.144l-0.019-0.001c-0.166-0.008-0.336-0.018-0.503-0.018
			c-0.151,0-0.301,0.01-0.45,0.018l-0.02,0.001v-0.019v-0.145h0.019h0.024c0.156-0.001,0.284-0.089,0.345-0.26l0.669-1.916
			c0.055-0.155,0.13-0.362,0.166-0.529c0.129-0.044,0.297-0.128,0.378-0.18c0.012-0.004,0.023-0.01,0.041-0.01
			c0.01,0,0.032,0.004,0.045,0.025c0.013,0.033,0.024,0.07,0.038,0.105l0.77,2.183c0.048,0.146,0.098,0.301,0.152,0.424
			c0.049,0.111,0.126,0.156,0.26,0.156h0.041v-0.001h0.002V42.63z M32.454,39.726c-0.017,0.11-0.032,0.225-0.045,0.337
			c-0.007,0.111-0.007,0.224-0.007,0.336v0.013l-0.014,0.005l-0.146,0.055L32.24,40.45c-0.012-0.156-0.027-0.384-0.291-0.384h-0.668
			v2.203c0.005,0.316,0.131,0.337,0.329,0.341h0.098v0.02v0.143H31.69c-0.165,0-0.456-0.018-0.681-0.018
			c-0.25,0-0.541,0.018-0.705,0.018h-0.02v-0.018v-0.145h0.02h0.078c0.231-0.005,0.322-0.008,0.33-0.332l-0.002-2.211h-0.666
			c-0.309,0.005-0.302,0.058-0.371,0.365l-0.002,0.016h-0.015H29.51l0.002-0.021c0.017-0.117,0.037-0.233,0.049-0.354
			c0.017-0.117,0.027-0.232,0.027-0.353V39.7h0.018h0.113l0.004,0.013c0.029,0.105,0.105,0.106,0.211,0.107h0.021h2.155
			c0.114-0.002,0.198-0.003,0.206-0.111l0.002-0.021l0.02,0.004l0.118,0.018L32.454,39.726z M31.691,35.396
			c0-1.573,1.403-2.701,2.907-2.701c0.623,0,1.221,0.2,1.812,0.407l0.075,1.098h-0.19c-0.147-0.899-0.784-1.258-1.643-1.258
			c-0.883,0-2.163,0.591-2.163,2.432c0,1.551,1.106,2.663,2.287,2.663c0.759,0,1.388-0.522,1.542-1.328l0.176,0.046l-0.176,1.12
			c-0.321,0.2-1.189,0.408-1.696,0.408C32.827,38.284,31.692,37.125,31.691,35.396z M33.882,39.841v0.144h-0.019h-0.058
			c-0.153,0.003-0.291,0.017-0.293,0.221v2.187c0.002,0.205,0.14,0.22,0.293,0.221h0.074v0.02v0.143h-0.018
			c-0.201,0-0.451-0.018-0.659-0.018c-0.204,0-0.45,0.018-0.614,0.018H32.57V42.76v-0.125v-0.02h0.017h0.06
			c0.151-0.002,0.288-0.016,0.29-0.221v-2.187c-0.002-0.204-0.139-0.219-0.29-0.221H32.57v-0.019v-0.143h0.018
			c0.164,0,0.414,0.016,0.618,0.016c0.208,0,0.459-0.016,0.656-0.016h0.019h0.001V39.841z M35.549,42.838
			c-0.892-0.003-1.578-0.61-1.58-1.518c0.002-0.878,0.682-1.559,1.559-1.559c0.896,0,1.615,0.558,1.617,1.457
			C37.145,42.189,36.446,42.833,35.549,42.838z M40.176,40.495v1.9c0,0.146,0.001,0.291,0.022,0.419l0.003,0.02h-0.02l-0.172-0.006
			l-2.119-2.361v1.674c0.006,0.364,0.062,0.466,0.375,0.47h0.09v0.019v0.146h-0.02c-0.181,0-0.359-0.017-0.537-0.017
			c-0.187,0-0.379,0.017-0.568,0.017h-0.02v-0.019v-0.144h0.02h0.056c0.275-0.002,0.354-0.179,0.358-0.511v-1.76
			c-0.002-0.221-0.183-0.356-0.363-0.356h-0.072v-0.019v-0.143h0.018c0.16,0,0.322,0.016,0.479,0.016
			c0.125,0,0.245-0.016,0.388-0.01l1.834,2.064v-1.535c-0.002-0.332-0.225-0.373-0.347-0.375h-0.11v-0.018v-0.144h0.02
			c0.197,0,0.391,0.015,0.583,0.015c0.172,0,0.343-0.015,0.517-0.015h0.018v0.019v0.143h-0.018h-0.063
			C40.357,39.989,40.178,40.005,40.176,40.495z M43.507,42.63v0.148l-0.021-0.001c-0.186-0.009-0.374-0.017-0.574-0.017
			c-0.203,0-0.413,0.008-0.625,0.017l-0.019,0.001v-0.02v-0.144h0.019h0.045c0.096,0,0.241-0.023,0.241-0.103
			c0.001-0.047-0.036-0.16-0.083-0.295l-0.158-0.472H41.41l-0.129,0.422c-0.042,0.143-0.091,0.253-0.09,0.32
			c0,0.103,0.155,0.128,0.293,0.128h0.063v0.02v0.144l-0.019-0.001c-0.167-0.008-0.338-0.018-0.504-0.018
			c-0.149,0-0.3,0.01-0.451,0.018l-0.019,0.001v-0.019v-0.145h0.019h0.024c0.157,0,0.287-0.09,0.347-0.26l0.669-1.916
			c0.053-0.155,0.129-0.362,0.165-0.528c0.131-0.046,0.299-0.129,0.381-0.181c0.011-0.004,0.02-0.008,0.039-0.008
			c0.011-0.002,0.032,0.002,0.046,0.023c0.012,0.033,0.025,0.07,0.038,0.105l0.769,2.183c0.05,0.148,0.099,0.301,0.154,0.425
			c0.049,0.11,0.124,0.155,0.258,0.155h0.043h0.001V42.63z M46.012,42.052c-0.047,0.237-0.104,0.472-0.155,0.709l-0.003,0.014
			h-0.016c-0.368,0-0.735-0.018-1.101-0.018c-0.369,0-0.736,0.018-1.103,0.018h-0.019v-0.018v-0.145h0.019h0.058
			c0.151-0.003,0.295-0.014,0.296-0.262v-2.146c-0.001-0.203-0.143-0.218-0.296-0.22h-0.076v-0.018v-0.144h0.019
			c0.221,0,0.438,0.015,0.66,0.015c0.211,0,0.42-0.015,0.633-0.015h0.019v0.019v0.143h-0.019h-0.104
			c-0.163,0.005-0.263-0.003-0.267,0.208v2.153c0.002,0.155,0.104,0.196,0.234,0.217c0.073,0.005,0.15,0.008,0.231,0.008
			c0.101,0,0.208-0.005,0.315-0.018c0.17-0.019,0.317-0.117,0.389-0.217c0.064-0.089,0.102-0.203,0.125-0.295l0.006-0.013h0.013
			h0.144L46.012,42.052z M45.943,40.601c-0.252,0-0.44-0.192-0.44-0.438c0-0.248,0.188-0.441,0.44-0.441
			c0.25,0,0.438,0.193,0.438,0.441C46.381,40.409,46.192,40.601,45.943,40.601z"/><path d="M43.945 35.073c-.284 0-.521.185-.729.362v1.864c.001.293.275.783.79.783.822 0 1.168-.806 1.168-1.49C45.174 35.765 44.545 35.073 43.945 35.073zM45.942 39.805c-.199 0-.351.17-.351.359 0 .187.153.355.351.355.197 0 .347-.167.347-.355C46.289 39.974 46.139 39.804 45.942 39.805zM46.164 40.395h-.085c-.041 0-.076-.088-.158-.203h-.049v.146c0 .028.009.027.064.034v.021h-.213v-.021c.055-.008.065-.006.065-.04v-.326c0-.045-.005-.061-.063-.059v-.021h.226c.078 0 .147.035.147.115 0 .067-.043.114-.104.133l.072.102c.034.046.073.089.097.104h.001V40.395zM45.87 42.044c-.024.091-.061.211-.13.3-.074.106-.224.206-.398.227-.193.022-.381.022-.553.008-.134-.016-.25-.066-.25-.234v-2.153c0-.222.125-.226.283-.226h.105v-.125c-.213 0-.422.016-.635.016-.222 0-.439-.016-.66-.016v.125h.058c.151 0 .315.019.315.237v2.146c0 .26-.164.281-.315.281h-.058v.125c.37 0 .735-.017 1.104-.017.368 0 .735.017 1.102.017.05-.238.109-.473.154-.711H45.87zM45.822 42.737c-.36 0-.724-.016-1.086-.016-.363 0-.724.016-1.085.016v-.088h.04c.151 0 .332-.028.332-.299v-2.146c0-.23-.183-.256-.332-.256h-.04v-.089c.215.002.427.017.643.017.207 0 .41-.015.616-.017v.089h-.087c-.157 0-.303.012-.303.244v2.153c0 .179.132.236.268.252.076.004.153.009.235.009.101 0 .211-.007.321-.017.181-.022.334-.125.412-.232.067-.092.104-.203.129-.294v.001h.084C45.926 42.289 45.87 42.51 45.822 42.737zM25.988 13.609c-4.526.001-8.194 3.671-8.195 8.198.001 4.526 3.669 8.195 8.195 8.198 4.527-.002 8.195-3.672 8.195-8.198C34.183 17.278 30.515 13.609 25.988 13.609zM24.127 26.653c-1.948-.75-3.329-2.635-3.333-4.848.004-2.213 1.384-4.099 3.333-4.849V26.653zM27.846 26.658v-9.7c1.948.748 3.333 2.636 3.337 4.85C31.179 24.023 29.795 25.908 27.846 26.658zM22.899 34.906c-.467 0-.789.344-.881.897h1.335c.192 0 .214-.099.214-.19C23.567 35.221 23.329 34.906 22.899 34.906z"/><path d="M45.92 39.956h-.05v.208h.054c.057 0 .082-.042.082-.111C46.006 39.981 45.965 39.956 45.92 39.956zM29.836 42.63c-.139 0-.227-.05-.278-.169-.054-.125-.103-.28-.153-.426l-.768-2.184c-.013-.033-.026-.071-.038-.104-.009-.013-.017-.013-.03-.013-.014 0-.021.005-.034.009-.078.05-.246.134-.378.179-.026.156-.101.365-.156.519l-.668 1.916c-.061.174-.2.272-.363.272h-.024v.125c.151-.01.3-.017.45-.017.168 0 .338.007.506.017V42.63h-.047c-.137 0-.313-.02-.313-.146 0-.074.051-.183.093-.325l.133-.435h.948l.163.483c.045.134.083.246.083.3 0 .105-.162.123-.258.123h-.047v.125c.212-.01.421-.017.626-.017.201 0 .388.007.576.017V42.63H29.836zM29.842 42.737c-.183-.007-.364-.017-.558-.017-.198 0-.401.01-.607.017V42.65h.026c.095-.003.272-.012.277-.141 0-.062-.038-.172-.084-.307l-.168-.497h-.973l-.137.447c-.042.141-.093.249-.094.332.006.147.197.163.332.165h.027v.085c-.16-.007-.324-.017-.486-.017-.146 0-.29.01-.433.017v-.087h.007c.171 0 .317-.103.38-.285l.667-1.916c.054-.154.13-.364.156-.521.124-.033.292-.114.372-.166.009-.004.015-.006.024-.006h.007c.004 0 .003 0 .006.004.011.029.023.068.036.1l.768 2.184c.051.147.1.301.155.428.052.123.15.18.294.18h.006V42.737zM33.804 39.966h.059v-.125c-.196 0-.447.016-.657.016-.204 0-.452-.016-.616-.016v.125h.06c.152 0 .309.019.309.237v2.187c0 .218-.158.238-.309.238h-.06v.125c.164 0 .409-.016.614-.016.208 0 .459.016.659.016v-.125h-.059c-.151 0-.31-.019-.31-.238v-2.187C33.494 39.986 33.654 39.966 33.804 39.966zM33.805 42.648h.039v.088c-.198 0-.439-.017-.641-.017-.199 0-.436.015-.595.017v-.088h.04c.148 0 .326-.028.326-.257v-2.188c0-.231-.178-.257-.326-.257h-.04v-.089c.161.002.402.017.599.017.202.001.444-.013.637-.017v.089h-.039c-.151 0-.328.027-.328.257v2.188C33.477 42.622 33.654 42.648 33.805 42.648zM23.073 42.377l-.713-1.068c.331-.129.581-.359.581-.734 0-.591-.468-.734-.994-.734-.221 0-.422.016-.672.016-.255 0-.514-.016-.647-.016v.125h.074c.13 0 .297.011.297.316v2.122c0 .154-.141.226-.297.226h-.074v.126c.208 0 .404-.017.605-.017.238 0 .479.017.718.017V42.63h-.076c-.193 0-.342-.013-.342-.334V41.4h.275c.272.481.548.931.869 1.354.129 0 .264-.017.393-.017.137 0 .271.017.408.017V42.63C23.273 42.606 23.19 42.555 23.073 42.377zM23.458 42.646v.091c-.13-.003-.258-.017-.392-.017-.131 0-.264.018-.391.018-.308-.413-.582-.865-.855-1.344l-.004-.01h-.285-.019v.912c0 .329.171.354.361.354h.057v.086c-.23-.001-.466-.017-.7-.017-.195 0-.386.017-.586.017v-.087h.057c.158 0 .315-.078.315-.245v-2.122c0-.313-.185-.335-.315-.335h-.057v-.089c.136.002.384.017.629.017.251 0 .452-.017.672-.017.525.002.976.137.976.716 0 .367-.243.591-.569.719l-.021.009.727 1.086c.114.175.206.233.402.258H23.458z"/><path d="M21.77 39.974c-.126 0-.182.011-.239.016l-.017.001v1.278h.019.204c.42 0 .66-.17.661-.668C22.398 40.219 22.151 39.974 21.77 39.974zM21.737 41.252h-.204v-1.244c.058-.004.112-.017.237-.017.372 0 .609.237.609.61C22.379 41.093 22.155 41.25 21.737 41.252zM26.963 39.841c-.172 0-.343.016-.514.016-.196 0-.388-.016-.584-.016v.125h.091c.126 0 .363.051.363.394v1.565l-.003.002-.004.006-1.858-2.092c-.124 0-.247.016-.371.016-.157 0-.322-.016-.479-.016v.127h.053c.189 0 .38.142.38.375v1.758c0 .334-.086.529-.375.529h-.058v.125c.187 0 .379-.016.568-.016.179 0 .358.016.537.016V42.63h-.07c-.322 0-.393-.123-.393-.488v-1.721l2.149 2.396h.159c-.021-.129-.024-.275-.024-.421v-1.9c0-.497.196-.53.371-.53h.063L26.963 39.841zM26.902 39.95c-.18.001-.39.048-.39.549v1.9c0 .137.003.277.022.402h-.138l-2.168-2.425v1.767c.001.363.082.508.412.509h.052v.087c-.172 0-.345-.016-.521-.016-.184 0-.37.016-.55.016v-.088l.041.001c.299-.002.393-.216.393-.55v-1.758c0-.247-.2-.394-.397-.395h-.037v-.089c.152.002.308.017.463.017.126 0 .247-.017.371-.017l1.858 2.101.013-.014.008-.008.005-1.579c0-.354-.253-.411-.382-.412h-.073v-.089c.189.002.375.017.566.017.166 0 .33-.015.495-.017l.001.091H26.902zM35.519 39.982c-.717.001-.928.634-.93 1.192 0 .743.34 1.442 1 1.443.795-.001.933-.698.935-1.307C36.524 40.706 36.198 39.981 35.519 39.982zM32.336 39.711c-.01.125-.113.13-.228.13h-2.155c-.11 0-.216.002-.249-.123h-.102c0 .123-.007.238-.024.355-.012.122-.034.238-.05.355h.125c.063-.305.075-.381.388-.381h.687v2.23c0 .331-.118.352-.348.352h-.078v.126c.162 0 .455-.017.705-.017.226 0 .519.017.68.017V42.63h-.079c-.201 0-.347-.037-.347-.359v-2.221h.687c.279 0 .299.246.308.4l.125-.047c0-.112 0-.225.01-.338.014-.112.029-.225.045-.338L32.336 39.711zM32.372 40.064c-.009.109-.009.219-.009.326l-.091.035c-.009-.155-.046-.394-.324-.395h-.704v2.24c0 .328.163.377.364.378h.062v.089c-.166-.001-.443-.018-.662-.018-.243 0-.523.017-.688.018v-.089h.065c.228-.001.363-.034.363-.369v-2.249h-.703c-.311-.004-.348.09-.402.38h-.09c.015-.108.035-.219.047-.334.016-.11.023-.224.025-.339h.068c.037.117.144.123.242.121h.021 2.155c.104.002.22-.004.241-.126l.062.01C32.399 39.849 32.383 39.956 32.372 40.064zM28.257 40.291h-.013-.009-.013l-.4 1.217h.832L28.257 40.291zM28.236 40.31v-.002h.009l.384 1.183h-.78L28.236 40.31z"/><polygon points="28.24 40.353 27.873 41.471 28.603 41.471"/><path d="M20.319 42.062c-.126.476-.347.51-.847.508-.268 0-.509 0-.509-.272v-.972h.5c.288 0 .301.163.325.414l.125-.026c-.009-.159-.013-.317-.013-.476 0-.162.005-.325.013-.489h-.126c-.024.226-.079.368-.328.368h-.497v-1.093h.579c.439 0 .488.217.509.488l.127-.033c-.013-.184-.017-.459-.01-.639-.283 0-.716.016-1.067.016-.351 0-.786-.016-1.04-.016v.127h.059c.151 0 .309.019.309.237v2.187c0 .218-.159.238-.309.238H18.06v.125c.238 0 .735-.016 1.111-.016.375 0 .854.016 1.123.016.038-.223.087-.442.142-.664L20.319 42.062zM20.279 42.734c-.269 0-.74-.017-1.109-.017-.366 0-.848.017-1.092.017v-.087h.041c.148-.002.326-.029.326-.258V40.2c0-.231-.178-.257-.326-.257h-.041v-.089c.256.002.678.017 1.022.017.342 0 .766-.015 1.049-.017-.003.059-.004.128-.004.199 0 .138.005.291.013.408l-.09.023c-.018-.261-.091-.484-.525-.482h-.598v1.129h.514c.255.004.323-.149.346-.367h.09c-.009.159-.013.315-.013.472 0 .153.005.308.013.461l-.09.021c-.021-.238-.051-.414-.342-.412h-.519v.99c0 .291.263.291.526.291.493.004.736-.037.861-.505l.083.019C20.362 42.312 20.315 42.525 20.279 42.734zM40.077 39.857c-.194 0-.387-.016-.583-.016v.125h.09c.127 0 .364.051.364.394v1.565l-.003.002-.006.006-1.858-2.092c-.125 0-.245.016-.372.016-.159 0-.321-.016-.479-.016v.127h.059c.19 0 .379.142.379.375v1.758c0 .334-.087.529-.375.529h-.059v.125c.187 0 .38-.016.568-.016.178 0 .357.016.537.016V42.63h-.072c-.321 0-.392-.123-.392-.488v-1.721l2.15 2.396h.157c-.02-.129-.024-.275-.024-.421v-1.9c0-.497.196-.53.372-.53h.062v-.125C40.42 39.841 40.248 39.857 40.077 39.857zM40.572 39.95h-.045c-.178.001-.389.046-.389.549v1.9c0 .137.002.277.021.402h-.136l-2.168-2.426v1.768c0 .363.082.508.41.509h.054v.087c-.173 0-.347-.016-.521-.016-.184 0-.369.016-.551.016v-.088l.041.001c.301-.002.395-.216.395-.55v-1.758c0-.247-.202-.394-.398-.395h-.037v-.089c.152.002.309.017.461.017.127 0 .249-.017.372-.017l1.858 2.101.014-.014.01-.008.004-1.579c0-.352-.254-.411-.383-.412H39.51v-.089c.19.002.377.017.567.017.165 0 .331-.015.496-.017L40.572 39.95z"/><polygon points="14.247 41.922 14.248 41.922 14.248 41.922"/><path d="M14.396 39.857c-.197 0-.388-.016-.587-.016v.125h.092c.125 0 .363.051.363.394v1.565l-.007.008-.009-.01v.002l-.003-.005-1.846-2.079c-.126 0-.247.016-.372.016-.16 0-.322-.016-.48-.016v.125h.054c.188 0 .381.143.381.375v1.76c0 .332-.088.529-.376.529h-.058v.124c.188 0 .381-.017.568-.017.18 0 .359.017.538.017v-.125h-.07c-.322 0-.393-.125-.393-.488v-1.721l2.15 2.396H14.5c-.021-.129-.024-.275-.024-.421v-1.9c0-.497.196-.529.372-.529h.062v-.125C14.738 39.841 14.567 39.857 14.396 39.857zM14.849 39.948c-.181 0-.39.048-.39.549v1.9c0 .137.003.276.021.403h-.138l-2.167-2.427v1.769c0 .363.082.506.411.508h.052v.089c-.173-.001-.346-.018-.52-.018-.184 0-.37.017-.55.018v-.09l.04.002c.301-.002.393-.217.393-.549v-1.76c0-.245-.2-.394-.397-.394h-.037l.001-.089c.151.002.308.017.46.017.127 0 .248-.017.372-.017l1.857 2.1.014-.013.008-.008.007-1.579c0-.353-.254-.411-.382-.411H13.83v-.089c.189.002.375.017.566.017.165 0 .33-.015.495-.017l.001.089H14.849zM21.77 40.008c-.113 0-.166.01-.219.016v1.209h.186c.413-.003.622-.146.625-.633C22.36 40.237 22.133 40.01 21.77 40.008zM17.827 39.711c-.008.125-.113.13-.227.13h-2.154c-.112 0-.216.002-.25-.123h-.101c0 .123-.008.238-.024.355-.012.122-.033.238-.05.355h.125c.063-.305.075-.381.388-.381h.685v2.23c0 .331-.117.352-.347.352h-.079v.126c.163 0 .455-.017.706-.017.224 0 .517.017.68.017V42.63h-.081c-.199 0-.345-.037-.345-.359v-2.221h.685c.28 0 .3.246.309.4l.126-.047c0-.112 0-.225.007-.338.014-.112.029-.225.046-.338L17.827 39.711zM17.863 40.065c-.008.109-.009.219-.009.326l-.089.035c-.01-.155-.045-.394-.326-.395h-.704v2.24c0 .328.164.378.365.379h.061v.087c-.166 0-.444-.017-.662-.017-.241 0-.523.017-.688.017V42.65h.063c.229-.001.364-.035.364-.37v-2.249h-.703c-.311-.004-.347.09-.402.38h-.09c.017-.108.036-.22.047-.334.016-.11.024-.224.025-.339h.068c.038.117.146.121.244.121h.021 2.153c.106.002.222-.004.241-.126l.064.011C17.891 39.849 17.875 39.956 17.863 40.065z"/><polygon points="41.867 40.353 41.5 41.471 42.23 41.471"/><path d="M35.518,39.943c-0.743,0-0.963,0.667-0.965,1.229c0.002,0.75,0.346,1.478,1.037,1.479c0.826,0,0.969-0.733,0.971-1.342
			C36.559,40.698,36.229,39.945,35.518,39.943z M35.593,42.633c-0.677,0-1.02-0.715-1.02-1.461c0-0.56,0.217-1.211,0.947-1.211
			c0.693,0,1.022,0.739,1.022,1.348S36.401,42.633,35.593,42.633z"/><polygon points="14.245 41.919 14.245 41.919 14.247 41.921"/><path d="M35.527,39.778c-0.868,0-1.54,0.673-1.54,1.541c0,0.897,0.676,1.5,1.562,1.5c0.889,0,1.578-0.64,1.578-1.601
			C37.127,40.33,36.417,39.778,35.527,39.778z M35.549,42.799c-0.875,0-1.543-0.592-1.545-1.48c0.002-0.857,0.666-1.523,1.524-1.523
			c0.882,0.002,1.581,0.545,1.582,1.422C37.107,42.167,36.43,42.797,35.549,42.799z"/></svg>