<svg xmlns="http://www.w3.org/2000/svg" enable-background="new 0 0 56.48 56.48" viewBox="0 0 56.48 56.48"><path d="M15.051 25.812c-1.058 0-1.869.34-1.869.34l-.224 1.33c0 0 .669-.272 1.682-.272.575 0 .995.064.995.531 0 .284-.051.389-.051.389s-.453-.037-.663-.037c-1.335 0-2.737.568-2.737 2.287 0 1.354.919 1.663 1.49 1.663 1.089 0 1.559-.706 1.583-.708l-.051.59h1.359l.606-4.25C17.17 25.87 15.597 25.812 15.051 25.812zM14.289 30.75c-.479 0-.604-.365-.604-.583 0-.422.229-.93 1.36-.93.264.001.292.028.336.036C15.411 29.533 15.219 30.75 14.289 30.75zM19.959 27.237c.217 0 1.054.069 1.054.069l.195-1.362c0 0-.542-.121-1.424-.121-1.142 0-2.3.456-2.3 2.015 0 1.768 1.932 1.588 1.932 2.334 0 .496-.54.537-.956.537-.721 0-1.369-.246-1.371-.236l-.206 1.351c.037.01.437.188 1.732.188.347 0 2.334.09 2.334-1.961 0-1.918-1.839-1.539-1.839-2.31C19.11 27.357 19.409 27.237 19.959 27.237zM23.206 27.411h.817l.197-1.452h-.77l.157-.9h-1.543c-.034.033-.911 5.076-.911 5.688 0 .911.511 1.315 1.23 1.308.563-.004 1.002-.16 1.157-.203l.193-1.312c-.106 0-.261.046-.398.046-.537 0-.596-.287-.562-.498L23.206 27.411zM29.673 18.987h-2.754c-.37.5-.718 1.032-1.033 1.552h4.913C30.458 19.997 30.081 19.479 29.673 18.987zM51.161 36.445c-.03-.045-.055-.079-.075-.1-.011-.01-.025-.021-.043-.026.043-.003.079-.019.105-.046.025-.027.039-.059.039-.096 0-.026-.008-.051-.023-.074-.015-.023-.037-.04-.064-.049-.025-.01-.068-.015-.127-.015h-.174v.505h.082V36.33h.047c.028 0 .051.006.064.018.021.017.051.056.086.117l.044.08h.101L51.161 36.445zM50.979 36.263h-.1v-.152h.094c.039 0 .065.003.08.009.016.006.026.015.035.026.008.012.012.025.012.039 0 .023-.008.043-.025.057C51.058 36.255 51.025 36.263 50.979 36.263zM31.634 22.062h-6.607c-.422.799-.702 1.403-.781 1.553h8.014C32.079 23.081 31.871 22.564 31.634 22.062z"/><polygon points="10.293 24.583 8.772 29.093 8.693 24.583 6.441 24.583 5.207 31.932 6.696 31.932 7.635 26.392 7.773 31.932 8.836 31.932 10.819 26.392 9.94 31.932 11.52 31.932 12.737 24.583"/><path d="M40.069 25.812c-1.06 0-1.87.34-1.87.34l-.225 1.33c0 0 .67-.272 1.682-.272.575 0 .996.064.996.531 0 .284-.053.389-.053.389s-.452-.037-.664-.037c-1.334 0-2.735.568-2.735 2.287 0 1.354.92 1.663 1.49 1.663 1.088 0 1.558-.706 1.583-.708l-.051.59h1.358l.606-4.25C42.189 25.87 40.615 25.812 40.069 25.812zM39.309 30.75c-.48 0-.604-.365-.604-.583 0-.422.229-.93 1.36-.93.263.001.291.028.336.036C40.43 29.533 40.237 30.75 39.309 30.75zM51.21 31.255c-.041-.076-.101-.134-.176-.174-.074-.041-.15-.061-.23-.061-.077.001-.154.021-.23.061-.075.04-.133.098-.175.174-.042.075-.063.153-.063.234s.021.158.063.232c.041.074.099.133.173.175.075.041.152.062.232.062.082 0 .16-.021.233-.062.074-.042.132-.101.173-.175.043-.074.062-.151.062-.232C51.272 31.406 51.252 31.328 51.21 31.255zM51.145 31.682c-.034.062-.082.109-.145.146-.062.034-.126.052-.193.052-.068 0-.133-.018-.194-.052-.063-.035-.11-.083-.146-.146-.036-.063-.052-.127-.052-.194 0-.067.017-.132.054-.195.035-.062.082-.11.146-.145.064-.035.127-.05.192-.05s.129.016.19.05c.064.035.111.082.146.145.035.063.054.128.054.195C51.197 31.555 51.18 31.62 51.145 31.682z"/><path d="M50.963 31.648c-.029-.047-.055-.08-.074-.1-.012-.011-.025-.02-.043-.026.043-.003.078-.019.104-.046.025-.026.04-.06.04-.096 0-.025-.008-.051-.024-.074-.016-.022-.037-.039-.062-.049-.025-.01-.069-.015-.128-.015H50.6v.504h.082v-.214h.047c.029 0 .052.006.066.017.021.018.049.056.086.119l.043.079h.101L50.963 31.648zM50.783 31.463h-.099V31.31h.092c.04 0 .066.003.082.008.013.007.025.014.033.027.009.013.013.024.013.041 0 .022-.009.041-.024.055C50.861 31.458 50.83 31.463 50.783 31.463zM45.313 25.885c-.691 0-1.204.943-1.204.943l.138-.867h-1.438l-.963 5.982h1.584c.451-2.556.533-4.629 1.604-4.25.189-.988.371-1.371.576-1.788C45.61 25.906 45.514 25.885 45.313 25.885zM49.293 24.591l-.333 2.065c0 0-.58-.803-1.49-.803-1.415.001-2.593 1.706-2.593 3.664 0 1.265.629 2.504 1.913 2.504.925 0 1.437-.645 1.437-.645l-.067.551h1.501l1.18-7.339L49.293 24.591zM47.336 30.521c-.556 0-.816-.466-.816-1.198 0-1.197.537-1.986 1.216-1.986.554.001.839.382.839 1.28C48.575 29.432 48.172 30.521 47.336 30.521z"/><path d="M55.026,9.939H1.454C0.65,9.939,0,10.59,0,11.393v33.695c0,0.803,0.65,1.454,1.454,1.454h53.572
			c0.804,0,1.454-0.651,1.454-1.454V11.393C56.48,10.59,55.83,9.939,55.026,9.939z M51.409,36.518
			c-0.042,0.076-0.099,0.134-0.173,0.175c-0.074,0.041-0.152,0.062-0.232,0.062c-0.082,0-0.16-0.021-0.234-0.062
			c-0.073-0.041-0.131-0.099-0.174-0.175c-0.041-0.073-0.062-0.151-0.062-0.232s0.021-0.158,0.063-0.234
			c0.041-0.076,0.101-0.133,0.175-0.174c0.075-0.039,0.151-0.06,0.231-0.06c0.079,0,0.155,0.021,0.229,0.06
			c0.075,0.041,0.134,0.098,0.175,0.174c0.042,0.076,0.062,0.154,0.062,0.234S51.451,36.447,51.409,36.518z M52.457,28.241
			c0.002,8.005-6.484,14.497-14.49,14.499c-3.744,0.001-7.158-1.418-9.73-3.749c-2.572,2.327-5.979,3.745-9.717,3.745
			c-8.001,0-14.495-6.493-14.495-14.495c0-7.97,6.443-14.444,14.402-14.496c0.031,0,0.062,0,0.093,0
			c3.738,0,7.146,1.418,9.718,3.745c2.571-2.328,5.981-3.747,9.722-3.748c8.006-0.003,14.497,6.486,14.499,14.492
			C52.457,28.236,52.457,28.237,52.457,28.241z"/><path d="M26.753 37.406c.459.562.945 1.098 1.482 1.584.012-.011.025-.021.037-.031 0 0-.001 0-.001-.001h.003c.528-.481 1.021-.999 1.472-1.552H26.753zM28.727 29.45c0 0 .203-1 .203-1.407 0-1.017-.506-2.257-2.2-2.257-1.552.001-2.701 1.673-2.701 3.563 0 2.181 1.439 2.699 2.666 2.699 1.132 0 1.63-.254 1.63-.254l.272-1.488c0 0-.861.38-1.639.38-1.657 0-1.367-1.236-1.367-1.236H28.727zM26.735 27.171c.871 0 .71.979.71 1.057h-1.713C25.732 28.127 25.894 27.171 26.735 27.171zM35.965 25.991c.785 0 1.416.441 1.416.441l.252-1.635c0 0-.934-.378-1.738-.378-1.781 0-3.514 1.546-3.514 4.449 0 1.925.935 3.196 2.777 3.196.52 0 1.35-.211 1.35-.211l.276-1.684c0 0-.756.379-1.276.379-1.096-.001-1.535-.837-1.535-1.733C33.973 26.992 34.915 25.991 35.965 25.991zM24.818 34.361c.251.539.543 1.052.856 1.552h5.143c.312-.498.593-1.016.844-1.552H24.818zM32.353 25.887c-.691 0-1.203.943-1.203.943l.139-.867h-1.437l-.963 5.982h1.584c.449-2.555.533-4.629 1.604-4.25.188-.989.369-1.372.574-1.79C32.651 25.905 32.555 25.885 32.353 25.887z"/></svg>