<svg xmlns="http://www.w3.org/2000/svg" x="0px" y="0px" viewBox="0 0 50 50">
  <path
    d="M 29.40625 5 C 28.300781 5.050781 27.449219 5.988281 27.5 7.09375 C 27.550781 8.199219 28.488281 9.050781 29.59375 9 L 38.1875 9 L 9 38.1875 L 9 29.59375 C 9.007813 29.050781 8.796875 28.53125 8.414063 28.148438 C 8.03125 27.765625 7.511719 27.554688 6.96875 27.5625 C 5.863281 27.578125 4.984375 28.488281 5 29.59375 L 5 45 L 20.40625 45 C 21.128906 45.011719 21.796875 44.632813 22.160156 44.007813 C 22.527344 43.386719 22.527344 42.613281 22.160156 41.992188 C 21.796875 41.367188 21.128906 40.988281 20.40625 41 L 11.8125 41 L 41 11.8125 L 41 20.40625 C 40.988281 21.128906 41.367188 21.796875 41.992188 22.160156 C 42.613281 22.527344 43.386719 22.527344 44.007813 22.160156 C 44.632813 21.796875 45.011719 21.128906 45 20.40625 L 45 5 L 29.59375 5 C 29.53125 4.996094 29.46875 4.996094 29.40625 5 Z">
  </path>
</svg>