<svg xmlns="http://www.w3.org/2000/svg" x="0px" y="0px" viewBox="0 0 50 50">
  <path
    d="M 25.001953 0.001953125 C 23.710703 0.002328125 22.42 0.4945625 21.4375 1.4765625 L 1.4804688 21.435547 C -0.48453125 23.401547 -0.48453125 26.600406 1.4804688 28.566406 L 21.4375 48.523438 C 22.4195 49.505437 23.711906 49.998047 25.003906 49.998047 C 26.294906 49.998047 27.585359 49.506438 28.568359 48.523438 L 48.525391 28.566406 C 50.491391 26.600406 50.490391 23.400547 48.525391 21.435547 L 28.568359 1.4765625 C 27.584859 0.4930625 26.293203 0.001578125 25.001953 0.001953125 z M 25.003906 7 L 43.003906 25 L 25.003906 43 L 7.0039062 25 L 25.003906 7 z M 25.003906 13 C 24.748156 13 24.492375 13.097469 24.296875 13.292969 L 13.296875 24.292969 C 12.905875 24.683969 12.905875 25.316031 13.296875 25.707031 L 24.296875 36.707031 C 24.491875 36.902031 24.747906 37 25.003906 37 C 25.259906 37 25.515937 36.902031 25.710938 36.707031 L 36.710938 25.707031 C 37.101937 25.316031 37.101937 24.683969 36.710938 24.292969 L 25.710938 13.292969 C 25.515438 13.097469 25.259656 13 25.003906 13 z">
  </path>
</svg>